<svg width="11" height="11" viewBox="0 0 11 11" fill="none" xmlns="http://www.w3.org/2000/svg">
<path d="M10.2326 9.66944C10.2717 9.70591 10.3031 9.7499 10.3249 9.79878C10.3467 9.84765 10.3584 9.90041 10.3593 9.95391C10.3603 10.0074 10.3504 10.0605 10.3304 10.1102C10.3103 10.1598 10.2805 10.2048 10.2427 10.2427C10.2048 10.2805 10.1598 10.3103 10.1102 10.3304C10.0605 10.3504 10.0074 10.3603 9.95391 10.3593C9.90041 10.3584 9.84765 10.3467 9.79878 10.3249C9.7499 10.3031 9.70591 10.2717 9.66944 10.2326L5.16975 5.73354L0.670061 10.2326C0.594531 10.3029 0.494631 10.3413 0.391409 10.3394C0.288186 10.3376 0.1897 10.2958 0.1167 10.2228C0.0436989 10.1498 0.00188332 10.0513 6.20752e-05 9.94809C-0.00175916 9.84487 0.0365561 9.74497 0.106936 9.66944L4.60596 5.16975L0.106936 0.670061C0.0365561 0.594531 -0.00175916 0.494631 6.20752e-05 0.391409C0.00188332 0.288186 0.0436989 0.1897 0.1167 0.1167C0.1897 0.0436989 0.288186 0.00188332 0.391409 6.20752e-05C0.494631 -0.00175916 0.594531 0.0365561 0.670061 0.106936L5.16975 4.60596L9.66944 0.106936C9.74497 0.0365561 9.84487 -0.00175916 9.94809 6.20752e-05C10.0513 0.00188332 10.1498 0.0436989 10.2228 0.1167C10.2958 0.1897 10.3376 0.288186 10.3394 0.391409C10.3413 0.494631 10.3029 0.594531 10.2326 0.670061L5.73354 5.16975L10.2326 9.66944Z" fill="#FEFEFE"/>
</svg>
