<svg width="40" height="31" viewBox="0 0 40 31" fill="none" xmlns="http://www.w3.org/2000/svg">
<path d="M33.8837 2.59328C31.2605 1.36589 28.4853 0.493777 25.6316 0C25.2761 0.642656 24.8608 1.50703 24.5744 2.19469C21.4975 1.73198 18.4489 1.73198 15.4286 2.19469C15.1423 1.50719 14.7176 0.642656 14.3589 0C11.5023 0.493992 8.72477 1.36833 6.1003 2.59969C0.877802 10.4917 -0.53798 18.1875 0.169833 25.7744C3.63374 28.3611 6.99061 29.9325 10.2909 30.9608C11.1112 29.8329 11.8362 28.6387 12.4586 27.3906C11.2736 26.9395 10.1313 26.3836 9.04515 25.7294C9.33095 25.5175 9.61005 25.2967 9.88202 25.0673C16.4636 28.1458 23.6148 28.1458 30.118 25.0673C30.3911 25.2952 30.6701 25.516 30.9547 25.7294C29.8668 26.3853 28.7223 26.9424 27.535 27.3939C28.1609 28.647 28.8847 29.8423 29.7026 30.9639C33.0061 29.9358 36.3661 28.3644 39.83 25.7744C40.6606 16.9794 38.4112 9.35422 33.8837 2.59328ZM13.3553 21.1086C11.3795 21.1086 9.75921 19.2641 9.75921 17.018C9.75921 14.7719 11.345 12.9242 13.3553 12.9242C15.3656 12.9242 16.9859 14.7686 16.9514 17.018C16.9545 19.2641 15.3658 21.1086 13.3553 21.1086ZM26.6445 21.1086C24.6687 21.1086 23.0486 19.2641 23.0486 17.018C23.0486 14.7719 24.6342 12.9242 26.6445 12.9242C28.655 12.9242 30.2751 14.7686 30.2406 17.018C30.2406 19.2641 28.655 21.1086 26.6445 21.1086Z" fill="#5865F2"/>
</svg>
