<svg width="31" height="31" viewBox="0 0 31 31" fill="none" xmlns="http://www.w3.org/2000/svg">
<path d="M9.07267 2.98375C10.0431 3.31123 10.966 3.76552 11.8175 4.33483C13.0207 4.02686 14.258 3.87236 15.5 3.875C16.7826 3.875 18.02 4.03517 19.18 4.33354C20.031 3.76478 20.9535 3.31093 21.9235 2.98375C22.8237 2.67762 24.1064 2.18162 24.8685 3.02508C25.3851 3.59858 25.5143 4.55958 25.606 5.29325C25.7093 6.11217 25.7339 7.17908 25.4626 8.23825C26.4998 9.57771 27.125 11.1755 27.125 12.9167C27.125 15.5542 25.6964 17.8444 23.582 19.4305C22.5639 20.1835 21.4354 20.7743 20.2365 21.182C20.513 21.815 20.6667 22.515 20.6667 23.25V27.125C20.6667 27.4676 20.5306 27.7961 20.2883 28.0383C20.0461 28.2806 19.7176 28.4167 19.375 28.4167H11.625C11.2824 28.4167 10.9539 28.2806 10.7117 28.0383C10.4694 27.7961 10.3333 27.4676 10.3333 27.125V25.845C9.09979 25.9961 8.06517 25.8617 7.18554 25.4885C6.26588 25.0984 5.62521 24.4939 5.14342 23.9152C4.68617 23.3675 4.18758 22.1327 3.46683 21.8925C3.30586 21.8389 3.15702 21.7541 3.02881 21.643C2.90061 21.5318 2.79554 21.3965 2.71962 21.2448C2.56628 20.9384 2.54096 20.5836 2.64921 20.2585C2.75746 19.9334 2.99043 19.6646 3.29685 19.5113C3.60328 19.3579 3.95807 19.3326 4.28317 19.4409C5.14342 19.7276 5.704 20.3476 6.08763 20.8462C6.70763 21.647 7.21138 22.6933 8.19304 23.1105C8.59733 23.2823 9.19021 23.3947 10.1176 23.2681L10.3333 23.2242C10.3363 22.5213 10.4827 21.8264 10.7635 21.182C9.56463 20.7743 8.43613 20.1835 7.41804 19.4305C5.30358 17.8444 3.875 15.5555 3.875 12.9167C3.875 11.1781 4.49888 9.58158 5.5335 8.24342C5.26225 7.18425 5.2855 6.11475 5.38883 5.29454L5.39529 5.24546C5.48958 4.49371 5.59938 3.60892 6.12638 3.02508C6.88846 2.18162 8.17238 2.67892 9.07138 2.98504L9.07267 2.98375Z" fill="#FEFEFE"/>
</svg>
