<svg width="78" height="78" viewBox="0 0 78 78" fill="none" xmlns="http://www.w3.org/2000/svg">
<path d="M17 19.4167H20.75V22.8333H17V19.4167ZM20.75 16H24.5V19.4167H20.75V16ZM24.5 16H28.25V19.4167H24.5V16ZM24.5 19.4167H28.25V22.8333H24.5V19.4167ZM28.25 19.4167H32V22.8333H28.25V19.4167ZM32 16H35.75V19.4167H32V16ZM35.75 19.4167H39.5V22.8333H35.75V19.4167ZM39.5 19.4167H43.25V22.8333H39.5V19.4167ZM47 19.4167H50.75V22.8333H47V19.4167ZM43.25 22.8333H47V26.25H43.25V22.8333ZM43.25 29.6667H47V33.0833H43.25V29.6667ZM43.25 33.0833H47V36.5H43.25V33.0833ZM43.25 36.5H47V39.9167H43.25V36.5ZM43.25 39.9167H47V43.3333H43.25V39.9167ZM43.25 43.3333H47V46.75H43.25V43.3333ZM43.25 46.75H47V50.1667H43.25V46.75ZM43.25 26.25H47V29.6667H43.25V26.25ZM35.75 22.8333H39.5V26.25H35.75V22.8333ZM32 22.8333H35.75V26.25H32V22.8333ZM35.75 26.25H39.5V29.6667H35.75V26.25ZM32 26.25H35.75V29.6667H32V26.25ZM32 29.6667H35.75V33.0833H32V29.6667ZM35.75 29.6667H39.5V33.0833H35.75V29.6667ZM35.75 33.0833H39.5V36.5H35.75V33.0833ZM32 33.0833H35.75V36.5H32V33.0833ZM32 36.5H35.75V39.9167H32V36.5ZM35.75 39.9167H39.5V43.3333H35.75V39.9167ZM35.75 36.5H39.5V39.9167H35.75V36.5ZM32 39.9167H35.75V43.3333H32V39.9167ZM32 43.3333H35.75V46.75H32V43.3333ZM35.75 43.3333H39.5V46.75H35.75V43.3333ZM28.25 29.6667H32V33.0833H28.25V29.6667ZM24.5 29.6667H28.25V33.0833H24.5V29.6667ZM28.25 36.5H32V39.9167H28.25V36.5ZM24.5 36.5H28.25V39.9167H24.5V36.5ZM43.25 50.1667H47V53.5833H43.25V50.1667ZM39.5 50.1667H43.25V53.5833H39.5V50.1667ZM35.75 50.1667H39.5V53.5833H35.75V50.1667ZM32 50.1667H35.75V53.5833H32V50.1667ZM28.25 50.1667H32V53.5833H28.25V50.1667ZM24.5 53.5833H28.25V57H24.5V53.5833ZM39.5 53.5833H43.25V57H39.5V53.5833ZM35.75 53.5833H39.5V57H35.75V53.5833ZM32 53.5833H35.75V57H32V53.5833ZM47 50.1667H50.75V53.5833H47V50.1667ZM50.75 50.1667H54.5V53.5833H50.75V50.1667ZM54.5 50.1667H58.25V53.5833H54.5V50.1667ZM47 53.5833H50.75V57H47V53.5833ZM50.75 53.5833H54.5V57H50.75V53.5833ZM58.25 46.75H62V50.1667H58.25V46.75Z" fill="url(#paint0_linear_39_1541)"/>
<path fill-rule="evenodd" clip-rule="evenodd" d="M38.75 6.45833C20.9158 6.45833 6.45833 20.9158 6.45833 38.75C6.45833 56.5842 20.9158 71.0417 38.75 71.0417C56.5842 71.0417 71.0417 56.5842 71.0417 38.75C71.0417 20.9158 56.5842 6.45833 38.75 6.45833ZM0 38.75C0 17.349 17.349 0 38.75 0C60.151 0 77.5 17.349 77.5 38.75C77.5 60.151 60.151 77.5 38.75 77.5C17.349 77.5 0 60.151 0 38.75Z" fill="url(#paint1_linear_39_1541)"/>
<defs>
<linearGradient id="paint0_linear_39_1541" x1="79.7951" y1="3.31541" x2="35.6514" y2="56.4477" gradientUnits="userSpaceOnUse">
<stop stop-color="#0C0B3A"/>
<stop offset="0.0001" stop-color="#9DE8EE"/>
<stop offset="0.490049" stop-color="#3726E2"/>
<stop offset="1" stop-color="#A156F5"/>
</linearGradient>
<linearGradient id="paint1_linear_39_1541" x1="108.147" y1="-23.977" x2="23.6275" y2="68.71" gradientUnits="userSpaceOnUse">
<stop stop-color="#0C0B3A"/>
<stop offset="0.0001" stop-color="#9DE8EE"/>
<stop offset="0.490049" stop-color="#3726E2"/>
<stop offset="1" stop-color="#A156F5"/>
</linearGradient>
</defs>
</svg>
