<svg width="174" height="53" viewBox="0 0 174 53" fill="none" xmlns="http://www.w3.org/2000/svg">
<path d="M11.6258 13.2785H14.1903V15.6151H11.6258V13.2785ZM14.1903 10.9419H16.7548V13.2785H14.1903V10.9419ZM16.7548 10.9419H19.3194V13.2785H16.7548V10.9419ZM16.7548 13.2785H19.3194V15.6151H16.7548V13.2785ZM19.3194 13.2785H21.8839V15.6151H19.3194V13.2785ZM21.8839 10.9419H24.4484V13.2785H21.8839V10.9419ZM24.4484 13.2785H27.0129V15.6151H24.4484V13.2785ZM27.0129 13.2785H29.5774V15.6151H27.0129V13.2785ZM32.1419 13.2785H34.7065V15.6151H32.1419V13.2785ZM29.5774 15.6151H32.1419V17.9516H29.5774V15.6151ZM29.5774 20.2882H32.1419V22.6247H29.5774V20.2882ZM29.5774 22.6247H32.1419V24.9613H29.5774V22.6247ZM29.5774 24.9613H32.1419V27.2978H29.5774V24.9613ZM29.5774 27.2978H32.1419V29.6344H29.5774V27.2978ZM29.5774 29.6344H32.1419V31.971H29.5774V29.6344ZM29.5774 31.971H32.1419V34.3075H29.5774V31.971ZM29.5774 17.9516H32.1419V20.2882H29.5774V17.9516ZM24.4484 15.6151H27.0129V17.9516H24.4484V15.6151ZM21.8839 15.6151H24.4484V17.9516H21.8839V15.6151ZM24.4484 17.9516H27.0129V20.2882H24.4484V17.9516ZM21.8839 17.9516H24.4484V20.2882H21.8839V17.9516ZM21.8839 20.2882H24.4484V22.6247H21.8839V20.2882ZM24.4484 20.2882H27.0129V22.6247H24.4484V20.2882ZM24.4484 22.6247H27.0129V24.9613H24.4484V22.6247ZM21.8839 22.6247H24.4484V24.9613H21.8839V22.6247ZM21.8839 24.9613H24.4484V27.2978H21.8839V24.9613ZM24.4484 27.2978H27.0129V29.6344H24.4484V27.2978ZM24.4484 24.9613H27.0129V27.2978H24.4484V24.9613ZM21.8839 27.2978H24.4484V29.6344H21.8839V27.2978ZM21.8839 29.6344H24.4484V31.971H21.8839V29.6344ZM24.4484 29.6344H27.0129V31.971H24.4484V29.6344ZM19.3194 20.2882H21.8839V22.6247H19.3194V20.2882ZM16.7548 20.2882H19.3194V22.6247H16.7548V20.2882ZM19.3194 24.9613H21.8839V27.2978H19.3194V24.9613ZM16.7548 24.9613H19.3194V27.2978H16.7548V24.9613ZM29.5774 34.3075H32.1419V36.6441H29.5774V34.3075ZM27.0129 34.3075H29.5774V36.6441H27.0129V34.3075ZM24.4484 34.3075H27.0129V36.6441H24.4484V34.3075ZM21.8839 34.3075H24.4484V36.6441H21.8839V34.3075ZM19.3194 34.3075H21.8839V36.6441H19.3194V34.3075ZM16.7548 36.6441H19.3194V38.9806H16.7548V36.6441ZM27.0129 36.6441H29.5774V38.9806H27.0129V36.6441ZM24.4484 36.6441H27.0129V38.9806H24.4484V36.6441ZM21.8839 36.6441H24.4484V38.9806H21.8839V36.6441ZM32.1419 34.3075H34.7065V36.6441H32.1419V34.3075ZM34.7065 34.3075H37.271V36.6441H34.7065V34.3075ZM37.271 34.3075H39.8355V36.6441H37.271V34.3075ZM32.1419 36.6441H34.7065V38.9806H32.1419V36.6441ZM34.7065 36.6441H37.271V38.9806H34.7065V36.6441ZM39.8355 31.971H42.4V34.3075H39.8355V31.971Z" fill="url(#paint0_linear_39_1546)"/>
<path fill-rule="evenodd" clip-rule="evenodd" d="M26.5 4.41667C14.3037 4.41667 4.41667 14.3037 4.41667 26.5C4.41667 38.6963 14.3037 48.5833 26.5 48.5833C38.6963 48.5833 48.5833 38.6963 48.5833 26.5C48.5833 14.3037 38.6963 4.41667 26.5 4.41667ZM0 26.5C0 11.8645 11.8645 0 26.5 0C41.1355 0 53 11.8645 53 26.5C53 41.1355 41.1355 53 26.5 53C11.8645 53 0 41.1355 0 26.5Z" fill="url(#paint1_linear_39_1546)"/>
<path d="M66.36 32.02H71.24V33.5H64.54V19.56H66.36V32.02ZM72.4928 27.98C72.4928 26.86 72.7195 25.88 73.1728 25.04C73.6261 24.1867 74.2461 23.5267 75.0328 23.06C75.8328 22.5933 76.7195 22.36 77.6928 22.36C78.6528 22.36 79.4861 22.5667 80.1928 22.98C80.8995 23.3933 81.4261 23.9133 81.7728 24.54V22.54H83.6128V33.5H81.7728V31.46C81.4128 32.1 80.8728 32.6333 80.1528 33.06C79.4461 33.4733 78.6195 33.68 77.6728 33.68C76.6995 33.68 75.8195 33.44 75.0328 32.96C74.2461 32.48 73.6261 31.8067 73.1728 30.94C72.7195 30.0733 72.4928 29.0867 72.4928 27.98ZM81.7728 28C81.7728 27.1733 81.6061 26.4533 81.2728 25.84C80.9395 25.2267 80.4861 24.76 79.9128 24.44C79.3528 24.1067 78.7328 23.94 78.0528 23.94C77.3728 23.94 76.7528 24.1 76.1928 24.42C75.6328 24.74 75.1861 25.2067 74.8528 25.82C74.5195 26.4333 74.3528 27.1533 74.3528 27.98C74.3528 28.82 74.5195 29.5533 74.8528 30.18C75.1861 30.7933 75.6328 31.2667 76.1928 31.6C76.7528 31.92 77.3728 32.08 78.0528 32.08C78.7328 32.08 79.3528 31.92 79.9128 31.6C80.4861 31.2667 80.9395 30.7933 81.2728 30.18C81.6061 29.5533 81.7728 28.8267 81.7728 28ZM92.0284 22.34C93.3618 22.34 94.4418 22.7467 95.2684 23.56C96.0951 24.36 96.5084 25.52 96.5084 27.04V33.5H94.7084V27.3C94.7084 26.2067 94.4351 25.3733 93.8884 24.8C93.3418 24.2133 92.5951 23.92 91.6484 23.92C90.6884 23.92 89.9218 24.22 89.3484 24.82C88.7884 25.42 88.5084 26.2933 88.5084 27.44V33.5H86.6884V22.54H88.5084V24.1C88.8684 23.54 89.3551 23.1067 89.9684 22.8C90.5951 22.4933 91.2818 22.34 92.0284 22.34ZM98.8014 28C98.8014 26.8667 99.0281 25.88 99.4814 25.04C99.9347 24.1867 100.561 23.5267 101.361 23.06C102.175 22.5933 103.101 22.36 104.141 22.36C105.488 22.36 106.595 22.6867 107.461 23.34C108.341 23.9933 108.921 24.9 109.201 26.06H107.241C107.055 25.3933 106.688 24.8667 106.141 24.48C105.608 24.0933 104.941 23.9 104.141 23.9C103.101 23.9 102.261 24.26 101.621 24.98C100.981 25.6867 100.661 26.6933 100.661 28C100.661 29.32 100.981 30.34 101.621 31.06C102.261 31.78 103.101 32.14 104.141 32.14C104.941 32.14 105.608 31.9533 106.141 31.58C106.675 31.2067 107.041 30.6733 107.241 29.98H109.201C108.908 31.1 108.321 32 107.441 32.68C106.561 33.3467 105.461 33.68 104.141 33.68C103.101 33.68 102.175 33.4467 101.361 32.98C100.561 32.5133 99.9347 31.8533 99.4814 31C99.0281 30.1467 98.8014 29.1467 98.8014 28ZM121.63 27.6C121.63 27.9467 121.61 28.3133 121.57 28.7H112.81C112.877 29.78 113.243 30.6267 113.91 31.24C114.59 31.84 115.41 32.14 116.37 32.14C117.157 32.14 117.81 31.96 118.33 31.6C118.863 31.2267 119.237 30.7333 119.45 30.12H121.41C121.117 31.1733 120.53 32.0333 119.65 32.7C118.77 33.3533 117.677 33.68 116.37 33.68C115.33 33.68 114.397 33.4467 113.57 32.98C112.757 32.5133 112.117 31.8533 111.65 31C111.183 30.1333 110.95 29.1333 110.95 28C110.95 26.8667 111.177 25.8733 111.63 25.02C112.083 24.1667 112.717 23.5133 113.53 23.06C114.357 22.5933 115.303 22.36 116.37 22.36C117.41 22.36 118.33 22.5867 119.13 23.04C119.93 23.4933 120.543 24.12 120.97 24.92C121.41 25.7067 121.63 26.6 121.63 27.6ZM119.75 27.22C119.75 26.5267 119.597 25.9333 119.29 25.44C118.983 24.9333 118.563 24.5533 118.03 24.3C117.51 24.0333 116.93 23.9 116.29 23.9C115.37 23.9 114.583 24.1933 113.93 24.78C113.29 25.3667 112.923 26.18 112.83 27.22H119.75ZM125.852 24.56C126.212 23.9333 126.746 23.4133 127.452 23C128.172 22.5733 129.006 22.36 129.952 22.36C130.926 22.36 131.806 22.5933 132.592 23.06C133.392 23.5267 134.019 24.1867 134.472 25.04C134.926 25.88 135.152 26.86 135.152 27.98C135.152 29.0867 134.926 30.0733 134.472 30.94C134.019 31.8067 133.392 32.48 132.592 32.96C131.806 33.44 130.926 33.68 129.952 33.68C129.019 33.68 128.192 33.4733 127.472 33.06C126.766 32.6333 126.226 32.1067 125.852 31.48V38.7H124.032V22.54H125.852V24.56ZM133.292 27.98C133.292 27.1533 133.126 26.4333 132.792 25.82C132.459 25.2067 132.006 24.74 131.432 24.42C130.872 24.1 130.252 23.94 129.572 23.94C128.906 23.94 128.286 24.1067 127.712 24.44C127.152 24.76 126.699 25.2333 126.352 25.86C126.019 26.4733 125.852 27.1867 125.852 28C125.852 28.8267 126.019 29.5533 126.352 30.18C126.699 30.7933 127.152 31.2667 127.712 31.6C128.286 31.92 128.906 32.08 129.572 32.08C130.252 32.08 130.872 31.92 131.432 31.6C132.006 31.2667 132.459 30.7933 132.792 30.18C133.126 29.5533 133.292 28.82 133.292 27.98ZM142.328 33.68C141.301 33.68 140.368 33.4467 139.528 32.98C138.701 32.5133 138.048 31.8533 137.568 31C137.101 30.1333 136.868 29.1333 136.868 28C136.868 26.88 137.108 25.8933 137.588 25.04C138.081 24.1733 138.748 23.5133 139.588 23.06C140.428 22.5933 141.368 22.36 142.408 22.36C143.448 22.36 144.388 22.5933 145.228 23.06C146.068 23.5133 146.728 24.1667 147.208 25.02C147.701 25.8733 147.948 26.8667 147.948 28C147.948 29.1333 147.694 30.1333 147.188 31C146.694 31.8533 146.021 32.5133 145.168 32.98C144.314 33.4467 143.368 33.68 142.328 33.68ZM142.328 32.08C142.981 32.08 143.594 31.9267 144.168 31.62C144.741 31.3133 145.201 30.8533 145.548 30.24C145.908 29.6267 146.088 28.88 146.088 28C146.088 27.12 145.914 26.3733 145.568 25.76C145.221 25.1467 144.768 24.6933 144.208 24.4C143.648 24.0933 143.041 23.94 142.388 23.94C141.721 23.94 141.108 24.0933 140.548 24.4C140.001 24.6933 139.561 25.1467 139.228 25.76C138.894 26.3733 138.728 27.12 138.728 28C138.728 28.8933 138.888 29.6467 139.208 30.26C139.541 30.8733 139.981 31.3333 140.528 31.64C141.074 31.9333 141.674 32.08 142.328 32.08ZM151.281 20.76C150.934 20.76 150.641 20.64 150.401 20.4C150.161 20.16 150.041 19.8667 150.041 19.52C150.041 19.1733 150.161 18.88 150.401 18.64C150.641 18.4 150.934 18.28 151.281 18.28C151.614 18.28 151.894 18.4 152.121 18.64C152.361 18.88 152.481 19.1733 152.481 19.52C152.481 19.8667 152.361 20.16 152.121 20.4C151.894 20.64 151.614 20.76 151.281 20.76ZM152.161 22.54V33.5H150.341V22.54H152.161ZM160.603 22.34C161.936 22.34 163.016 22.7467 163.843 23.56C164.669 24.36 165.083 25.52 165.083 27.04V33.5H163.283V27.3C163.283 26.2067 163.009 25.3733 162.463 24.8C161.916 24.2133 161.169 23.92 160.223 23.92C159.263 23.92 158.496 24.22 157.923 24.82C157.363 25.42 157.083 26.2933 157.083 27.44V33.5H155.263V22.54H157.083V24.1C157.443 23.54 157.929 23.1067 158.543 22.8C159.169 22.4933 159.856 22.34 160.603 22.34ZM170.276 24.04V30.5C170.276 31.0333 170.389 31.4133 170.616 31.64C170.842 31.8533 171.236 31.96 171.796 31.96H173.136V33.5H171.496C170.482 33.5 169.722 33.2667 169.216 32.8C168.709 32.3333 168.456 31.5667 168.456 30.5V24.04H167.036V22.54H168.456V19.78H170.276V22.54H173.136V24.04H170.276Z" fill="#FEFEFE"/>
<defs>
<linearGradient id="paint0_linear_39_1546" x1="73.9587" y1="-16.3972" x2="16.1582" y2="46.9888" gradientUnits="userSpaceOnUse">
<stop stop-color="#0C0B3A"/>
<stop offset="0.0001" stop-color="#9DE8EE"/>
<stop offset="0.490049" stop-color="#3726E2"/>
<stop offset="1" stop-color="#A156F5"/>
</linearGradient>
<linearGradient id="paint1_linear_39_1546" x1="73.9587" y1="-16.3972" x2="16.1582" y2="46.9888" gradientUnits="userSpaceOnUse">
<stop stop-color="#0C0B3A"/>
<stop offset="0.0001" stop-color="#9DE8EE"/>
<stop offset="0.490049" stop-color="#3726E2"/>
<stop offset="1" stop-color="#A156F5"/>
</linearGradient>
</defs>
</svg>
