<svg width="13" height="13" viewBox="0 0 13 13" fill="none" xmlns="http://www.w3.org/2000/svg">
<path d="M11.7578 12.2887L7.06125 7.59225C6.68625 7.91175 6.255 8.159 5.7675 8.334C5.28 8.509 4.79 8.5965 4.2975 8.5965C3.0965 8.5965 2.08 8.18075 1.248 7.34925C0.416 6.51725 0 5.501 0 4.3005C0 3.1 0.4155 2.08325 1.2465 1.25025C2.078 0.41675 3.094 0 4.2945 0C5.4955 0 6.5125 0.416 7.3455 1.248C8.1785 2.08 8.595 3.09675 8.595 4.29825C8.595 4.81925 8.50275 5.3235 8.31825 5.811C8.13325 6.2985 7.89075 6.7155 7.59075 7.062L12.2872 11.7577L11.7578 12.2887ZM4.2975 7.84575C5.2925 7.84575 6.13275 7.50325 6.81825 6.81825C7.50325 6.13325 7.84575 5.293 7.84575 4.2975C7.84575 3.3025 7.50325 2.4625 6.81825 1.7775C6.13325 1.0925 5.29325 0.75 4.29825 0.75C3.30325 0.75 2.463 1.0925 1.7775 1.7775C1.0925 2.4625 0.75 3.3025 0.75 4.2975C0.75 5.2925 1.0925 6.1325 1.7775 6.8175C2.4625 7.5025 3.3025 7.84575 4.2975 7.84575Z" fill="#8C929C"/>
</svg>
