<svg width="19" height="19" viewBox="0 0 19 19" fill="none" xmlns="http://www.w3.org/2000/svg">
<path d="M9.54056 18.1596C9.73956 18.1596 9.90085 18.3191 9.90085 18.516C9.90085 18.7128 9.73956 18.8724 9.54056 18.8724C9.34157 18.8724 9.18018 18.7128 9.18018 18.516C9.18018 18.3191 9.34157 18.1596 9.54056 18.1596ZM9.14913 1.1351C9.32514 1.14965 9.46738 1.28307 9.49117 1.45607L9.9198 4.5701C10.0638 5.59893 11.3046 6.0447 12.0705 5.34556L16.3647 1.43715C16.4682 1.34286 16.6296 1.3494 16.7249 1.45173C16.8125 1.54564 16.8152 1.68939 16.7311 1.78634L12.9865 6.10572C12.2972 6.89949 12.8059 8.139 13.8567 8.22751L17.1606 8.54596C17.3251 8.56178 17.4456 8.70644 17.4295 8.86904C17.4163 9.00312 17.3129 9.11138 17.1783 9.13245L13.7066 9.67449C12.6986 9.81189 12.2421 11.0055 12.8977 11.781L14.1183 13.2198C14.2166 13.3358 14.2011 13.5086 14.0838 13.6056C13.9844 13.688 13.8406 13.6912 13.7374 13.6133L12.2329 12.4771C11.421 11.8665 10.2506 12.3855 10.1649 13.396L9.83331 17.337C9.8196 17.4998 9.67494 17.6208 9.51022 17.6073C9.3704 17.5958 9.2574 17.4898 9.23845 17.3525L8.71264 13.5457C8.57171 12.5168 7.33089 12.0711 6.56193 12.7702L1.99384 16.9296C1.89928 17.0157 1.75199 17.0098 1.66484 16.9164C1.58489 16.8306 1.58246 16.6994 1.65918 16.6109L5.6459 12.01C6.33524 11.2162 5.82973 9.9767 4.77882 9.8883L1.47416 9.56965C1.30962 9.55382 1.18923 9.40916 1.20529 9.24656C1.21853 9.11249 1.3218 9.00422 1.45648 8.98316L4.9259 8.44122C5.93389 8.30382 6.39345 7.11017 5.73781 6.33469L4.907 5.35524C4.78507 5.2115 4.80416 4.99733 4.94965 4.87686C5.07296 4.77475 5.25147 4.77083 5.37926 4.86742L6.39955 5.63863C7.21143 6.2492 8.38179 5.73024 8.46758 4.71974L8.74208 1.47523C8.75942 1.27025 8.94157 1.11797 9.14913 1.1351ZM0.360333 8.88245C0.559345 8.88245 0.720665 9.04193 0.720665 9.2388C0.720665 9.43557 0.559345 9.59515 0.360333 9.59515C0.161331 9.59515 0 9.43557 0 9.2388C0 9.04193 0.161331 8.88245 0.360333 8.88245ZM18.4325 8.52055C18.6315 8.52055 18.7928 8.68013 18.7928 8.87691C18.7928 9.07378 18.6315 9.23336 18.4325 9.23336C18.2335 9.23336 18.0721 9.07378 18.0721 8.87691C18.0721 8.68013 18.2335 8.52055 18.4325 8.52055ZM9.09702 0C9.29611 0 9.4574 0.159557 9.4574 0.356391C9.4574 0.553216 9.29611 0.712782 9.09702 0.712782C8.89802 0.712782 8.73673 0.553216 8.73673 0.356391C8.73673 0.159557 8.89802 0 9.09702 0Z" fill="url(#paint0_linear_71_1061)"/>
<defs>
<linearGradient id="paint0_linear_71_1061" x1="2.4555" y1="3.00194" x2="13.2323" y2="12.758" gradientUnits="userSpaceOnUse">
<stop stop-color="#FFC10B"/>
<stop offset="1" stop-color="#FB3F2E"/>
</linearGradient>
</defs>
</svg>
