<svg width="28" height="28" viewBox="0 0 28 28" fill="none" xmlns="http://www.w3.org/2000/svg">
<path d="M14.7133 3.0043L16.6809 9.06003C16.8483 9.57506 17.3282 9.92376 17.8697 9.92376H24.2371C24.9637 9.92376 25.2657 10.8535 24.6779 11.2805L19.5266 15.0232C19.0885 15.3415 18.9052 15.9057 19.0725 16.4207L21.0402 22.4764C21.2647 23.1674 20.4738 23.742 19.886 23.315L14.7347 19.5723C14.2966 19.254 13.7034 19.254 13.2653 19.5723L8.11396 23.315C7.52617 23.742 6.73531 23.1674 6.95983 22.4764L8.92745 16.4207C9.0948 15.9057 8.91147 15.3415 8.47336 15.0232L3.32205 11.2805C2.73427 10.8535 3.03635 9.92376 3.76289 9.92376H10.1303C10.6718 9.92376 11.1517 9.57506 11.3191 9.06003L13.2867 3.0043C13.5112 2.31332 14.4888 2.31332 14.7133 3.0043Z" stroke="#783FE0" stroke-width="0.5"/>
</svg>
