<svg width="36" height="33" viewBox="0 0 36 33" fill="none" xmlns="http://www.w3.org/2000/svg">
<g clip-path="url(#clip0_71_1038)">
<g clip-path="url(#clip1_71_1038)">
<path d="M17 2.5C12.8901 2.5 8.94484 4.13404 6.04102 7.0398C3.13421 9.94674 1.50083 13.8891 1.5 18C1.5 22.1092 3.13477 26.0544 6.04102 28.9602C8.94484 31.866 12.8901 33.5 17 33.5C21.1099 33.5 25.0552 31.866 27.959 28.9602C30.8652 26.0544 32.5 22.1092 32.5 18C32.5 13.8908 30.8652 9.94557 27.959 7.0398C25.0552 4.13404 21.1099 2.5 17 2.5Z" fill="url(#paint0_linear_71_1038)"/>
<path d="M8.51617 17.8363C13.0354 15.8678 16.0482 14.57 17.5546 13.9429C21.8607 12.1524 22.7544 11.8414 23.338 11.8309C23.4664 11.8288 23.7522 11.8605 23.9387 12.0113C24.0937 12.1384 24.1373 12.3104 24.1591 12.4311C24.1784 12.5517 24.2051 12.8266 24.1833 13.0412C23.9508 15.4921 22.9409 21.4398 22.4274 24.185C22.2119 25.3465 21.7832 25.7359 21.3691 25.774C20.4681 25.8568 19.7852 25.1792 18.9133 24.6078C17.5498 23.7134 16.7796 23.1569 15.4548 22.2843C13.9242 21.2758 14.9172 20.7215 15.7891 19.8157C16.0167 19.5786 19.9837 15.9712 20.0588 15.644C20.0685 15.6031 20.0782 15.4505 19.9862 15.3701C19.8966 15.2894 19.7634 15.317 19.6665 15.3388C19.5284 15.3698 17.3512 16.8104 13.1274 19.6602C12.5098 20.085 11.9504 20.2921 11.4466 20.2812C10.8944 20.2693 9.82882 19.9683 9.03687 19.711C8.06812 19.3955 7.29554 19.2286 7.36335 18.6926C7.39726 18.4136 7.78234 18.1281 8.51617 17.8363Z" fill="white"/>
</g>
</g>
<defs>
<linearGradient id="paint0_linear_71_1038" x1="1551.5" y1="2.5" x2="1551.5" y2="3102.5" gradientUnits="userSpaceOnUse">
<stop stop-color="#2AABEE"/>
<stop offset="1" stop-color="#229ED9"/>
</linearGradient>
<clipPath id="clip0_71_1038">
<rect width="36" height="33" fill="white"/>
</clipPath>
<clipPath id="clip1_71_1038">
<rect width="31" height="31" fill="white" transform="translate(1.5 2.5)"/>
</clipPath>
</defs>
</svg>
