<svg width="31" height="31" viewBox="0 0 31 31" fill="none" xmlns="http://www.w3.org/2000/svg">
<g clip-path="url(#clip0_71_1048)">
<path d="M20.6313 18.0834C20.7347 17.2309 20.8122 16.3784 20.8122 15.5C20.8122 14.6217 20.7347 13.7692 20.6313 12.9167H24.9972C25.2038 13.7434 25.333 14.6088 25.333 15.5C25.333 16.3913 25.2038 17.2567 24.9972 18.0834M18.3451 25.265C19.1201 23.8313 19.7143 22.2813 20.1276 20.6667H23.938C22.6866 22.8216 20.7012 24.4539 18.3451 25.265ZM18.0222 18.0834H11.9772C11.848 17.2309 11.7705 16.3784 11.7705 15.5C11.7705 14.6217 11.848 13.7563 11.9772 12.9167H18.0222C18.1384 13.7563 18.2288 14.6217 18.2288 15.5C18.2288 16.3784 18.1384 17.2309 18.0222 18.0834ZM14.9997 25.7817C13.9276 24.2317 13.0622 22.5138 12.5326 20.6667H17.4668C16.9372 22.5138 16.0718 24.2317 14.9997 25.7817ZM9.83301 10.3334H6.06134C7.29959 8.17246 9.28361 6.53748 11.6413 5.73504C10.8663 7.16879 10.2851 8.71879 9.83301 10.3334ZM6.06134 20.6667H9.83301C10.2851 22.2813 10.8663 23.8313 11.6413 25.265C9.28827 24.4543 7.30688 22.8215 6.06134 20.6667ZM5.00217 18.0834C4.79551 17.2567 4.66634 16.3913 4.66634 15.5C4.66634 14.6088 4.79551 13.7434 5.00217 12.9167H9.36801C9.26467 13.7692 9.18717 14.6217 9.18717 15.5C9.18717 16.3784 9.26467 17.2309 9.36801 18.0834M14.9997 5.20546C16.0718 6.75546 16.9372 8.48629 17.4668 10.3334H12.5326C13.0622 8.48629 13.9276 6.75546 14.9997 5.20546ZM23.938 10.3334H20.1276C19.7227 8.73379 19.1241 7.18959 18.3451 5.73504C20.7218 6.54879 22.698 8.18921 23.938 10.3334ZM14.9997 2.58337C7.85676 2.58337 2.08301 8.39587 2.08301 15.5C2.08301 18.9258 3.44387 22.2112 5.86621 24.6335C7.06564 25.8329 8.48956 26.7844 10.0567 27.4335C11.6238 28.0826 13.3034 28.4167 14.9997 28.4167C18.4254 28.4167 21.7108 27.0558 24.1331 24.6335C26.5555 22.2112 27.9163 18.9258 27.9163 15.5C27.9163 13.8038 27.5822 12.1242 26.9331 10.557C26.284 8.98992 25.3326 7.566 24.1331 6.36658C22.9337 5.16715 21.5098 4.21572 19.9427 3.5666C18.3755 2.91747 16.6959 2.58337 14.9997 2.58337Z" fill="#FEFEFE"/>
</g>
<defs>
<clipPath id="clip0_71_1048">
<rect width="31" height="31" fill="white"/>
</clipPath>
</defs>
</svg>
